<svg width="16" height="20" viewBox="0 0 16 20" fill="none" xmlns="http://www.w3.org/2000/svg">
<g clip-path="url(#clip0_338_4695)">
<path d="M5.0127 2.61888C4.46175 2.61888 4.0152 3.09055 4.0152 3.6725C4.0152 4.25444 4.46175 4.72611 5.0127 4.72611C5.56364 4.72611 6.01019 4.25444 6.01019 3.6725C6.01019 3.09055 5.56364 2.61888 5.0127 2.61888ZM2.19037 2.61888C2.60119 1.39114 3.70974 0.511475 5.0127 0.511475C6.31566 0.511475 7.42435 1.39114 7.83502 2.61888H14.9883C15.5393 2.61888 15.986 3.09055 15.986 3.6725C15.986 4.25444 15.5393 4.72611 14.9883 4.72611H7.83502C7.42437 5.95385 6.31566 6.83352 5.0127 6.83352C3.70974 6.83352 2.60122 5.95385 2.19037 4.72611H1.02255C0.471604 4.72611 0.0248871 4.25444 0.0248871 3.6725C0.0248871 3.09055 0.471604 2.61888 1.02255 2.61888H2.19037ZM10.9982 8.94093C10.4472 8.94093 10.0007 9.4126 10.0007 9.99454C10.0007 10.5765 10.4472 11.0482 10.9982 11.0482C11.5491 11.0482 11.9957 10.5765 11.9957 9.99454C11.9957 9.4126 11.5491 8.94093 10.9982 8.94093ZM8.17585 8.94093C8.5865 7.71319 9.69521 6.83352 10.9982 6.83352C12.3011 6.83352 13.4098 7.71319 13.8205 8.94093H14.9883C15.5393 8.94093 15.986 9.4126 15.986 9.99454C15.986 10.5765 15.5393 11.0482 14.9883 11.0482H13.8205C13.4098 12.2759 12.3011 13.1556 10.9982 13.1556C9.69521 13.1556 8.58652 12.2759 8.17585 11.0482H1.02255C0.471604 11.0482 0.0248871 10.5765 0.0248871 9.99454C0.0248871 9.4126 0.471604 8.94093 1.02255 8.94093H8.17585ZM5.01287 15.263C4.46192 15.263 4.01537 15.7346 4.01537 16.3166C4.01537 16.8985 4.46192 17.3702 5.01287 17.3702C5.56382 17.3702 6.01036 16.8985 6.01036 16.3166C6.01036 15.7346 5.56382 15.263 5.01287 15.263ZM2.19054 15.263C2.60136 14.0352 3.70991 13.1556 5.01287 13.1556C6.31583 13.1556 7.42452 14.0352 7.8352 15.263H14.9885C15.5394 15.263 15.9862 15.7346 15.9862 16.3166C15.9862 16.8985 15.5394 17.3702 14.9885 17.3702H7.8352C7.42454 18.5979 6.31583 19.4776 5.01287 19.4776C3.70991 19.4776 2.60139 18.5979 2.19054 17.3702H1.02272C0.471775 17.3702 0.025058 16.8985 0.025058 16.3166C0.025058 15.7346 0.471775 15.263 1.02272 15.263H2.19054Z" fill="black"/>
</g>
<defs>
<clipPath id="clip0_338_4695">
<rect width="16" height="19" fill="white" transform="translate(0 0.5)"/>
</clipPath>
</defs>
</svg>
