<svg width="18" height="20" viewBox="0 0 18 20" fill="none" xmlns="http://www.w3.org/2000/svg">
<g clip-path="url(#clip0_338_4715)">
<path fill-rule="evenodd" clip-rule="evenodd" d="M2.01795 2.73C3.53231 2.42644 4.68358 2.40802 5.63742 2.52442C6.75438 2.66055 7.65162 2.9853 8.65496 3.35245L8.68487 3.36337C9.67016 3.72383 10.7611 4.12308 12.1259 4.2894C13.2278 4.4239 14.477 4.40417 15.9931 4.13501V12.8631C14.4787 13.1667 13.3274 13.1851 12.3736 13.0689C11.2565 12.9326 10.3594 12.6078 9.35606 12.2408L9.32615 12.2297C8.34086 11.8695 7.24978 11.4702 5.88512 11.3037C4.78317 11.1694 3.53402 11.1891 2.01795 11.4583V2.73ZM16.7491 1.98286C14.8524 2.44537 13.4802 2.49182 12.3735 2.35684C11.2563 2.22071 10.3593 1.89579 9.35592 1.52881L9.32601 1.51789C8.34073 1.15743 7.24965 0.758182 5.88498 0.591741C4.50064 0.423006 2.8843 0.497186 0.798352 1.00388C0.353518 1.10219 0.0214539 1.49018 0.0214539 1.95369V18.5088C0.0214539 19.0467 0.468299 19.4826 1.01961 19.4826C1.57093 19.4826 2.01795 19.0467 2.01795 18.5088V13.4422C3.5323 13.1386 4.68357 13.1202 5.63741 13.2364C6.75437 13.3727 7.65161 13.6975 8.65495 14.0645L8.68486 14.0755C9.67015 14.436 10.7611 14.8351 12.1259 15.0016C13.5148 15.171 15.1371 15.0956 17.2335 14.5844C17.6778 14.476 17.9897 14.0865 17.9897 13.6396V2.92783C17.9897 2.62785 17.848 2.34466 17.6057 2.16011C17.3635 1.97556 17.0475 1.91018 16.7492 1.98306L16.7491 1.98286Z" fill="black"/>
</g>
<defs>
<clipPath id="clip0_338_4715">
<rect width="18" height="19" fill="white" transform="translate(0 0.5)"/>
</clipPath>
</defs>
</svg>
