<svg width="16" height="20" viewBox="0 0 16 20" fill="none" xmlns="http://www.w3.org/2000/svg">
<path fill-rule="evenodd" clip-rule="evenodd" d="M1.45469 1.23076C1.45469 0.82721 1.78034 0.5 2.18196 0.5H13.8182C14.2199 0.5 14.5455 0.82721 14.5455 1.23076C14.5455 1.63431 14.2199 1.96152 13.8182 1.96152H2.18196C1.78034 1.96152 1.45469 1.63431 1.45469 1.23076ZM0.0639528 3.85449C0.181321 3.59187 0.441059 3.42305 0.727428 3.42305H15.2728C15.5591 3.42305 15.8189 3.59188 15.9362 3.85449C16.0534 4.11695 16.0065 4.42428 15.8163 4.63925L10.1818 11.0086V18.7693C10.1818 19.0226 10.0513 19.2576 9.83686 19.3909C9.62241 19.524 9.3547 19.5361 9.12942 19.4229L6.22035 17.9614C5.97392 17.8376 5.81824 17.5846 5.81824 17.3078V11.0086L0.183794 4.63927C-0.00646343 4.42429 -0.0535406 4.11696 0.0638278 3.85452L0.0639528 3.85449ZM7.27262 11.4615V16.8558L8.72716 17.5866V11.4615H7.27262ZM9.12782 9.99999L13.6531 4.88466H2.34678L6.87204 9.99999H9.12782Z" fill="black"/>
</svg>
