<svg width="26" height="25" viewBox="0 0 26 25" fill="none" xmlns="http://www.w3.org/2000/svg">
<path d="M2.22866 0C0.994151 0 0 0.898988 0 2.016V15.4552C0 16.5719 0.993819 17.4712 2.22866 17.4712H5.57133L4.81688 24.1908L12.2573 17.4712H23.7713C25.0058 17.4712 26 16.5722 26 15.4552V2.016C26 0.899288 25.0062 0 23.7713 0H2.22866ZM5.57133 7.05559C6.59705 7.05559 7.42844 7.80765 7.42844 8.7355C7.42844 9.66334 6.59705 10.4154 5.57133 10.4154C4.54561 10.4154 3.71422 9.66334 3.71422 8.7355C3.71422 7.80765 4.54561 7.05559 5.57133 7.05559ZM13.0117 7.05559C14.0374 7.05559 14.8688 7.80765 14.8688 8.7355C14.8688 9.66334 14.0374 10.4154 13.0117 10.4154C11.986 10.4154 11.1546 9.66334 11.1546 8.7355C11.1546 7.80765 11.986 7.05559 13.0117 7.05559ZM20.4282 7.05559C21.4539 7.05559 22.2853 7.80765 22.2853 8.7355C22.2853 9.66334 21.4539 10.4154 20.4282 10.4154C19.4025 10.4154 18.5711 9.66334 18.5711 8.7355C18.5711 7.80765 19.4025 7.05559 20.4282 7.05559Z" fill="#CCCEDD"/>
</svg>
