<svg width="19" height="19" viewBox="0 0 19 19" fill="none" xmlns="http://www.w3.org/2000/svg">
<g clip-path="url(#clip0_295_3000)">
<path d="M9.5 0.5C7.11407 0.5 4.82594 1.44779 3.13888 3.13492C1.45174 4.82193 0.503952 7.11019 0.503952 9.49605C0.503952 11.8819 1.45174 14.1701 3.13888 15.8572C4.82588 17.5443 7.11414 18.4921 9.5 18.4921C11.8859 18.4921 14.1741 17.5443 15.8611 15.8572C17.5483 14.1702 18.496 11.8819 18.496 9.49605C18.496 7.11019 17.5483 4.82199 15.8611 3.13492C14.1741 1.44779 11.8859 0.5 9.5 0.5ZM9.38303 15.3039C9.22478 15.3039 9.07304 15.2409 8.96135 15.1288C8.84965 15.0167 8.78702 14.8647 8.78752 14.7065C8.78803 14.5482 8.85153 14.3966 8.96386 14.2853C9.07631 14.1738 9.22841 14.1118 9.38667 14.1127C9.54493 14.1137 9.69628 14.1776 9.80736 14.2903C9.91843 14.4031 9.98005 14.5554 9.97854 14.7136C9.97666 14.8705 9.91315 15.0204 9.80171 15.1308C9.69027 15.2412 9.53991 15.3033 9.38304 15.3038L9.38303 15.3039ZM10.7594 9.25502C9.95332 9.73181 9.98393 10.2986 9.98393 10.3346V11.774V11.7739C9.98393 11.9171 9.92708 12.0544 9.82593 12.1557C9.72465 12.2568 9.58735 12.3137 9.44427 12.3137C9.29831 12.3152 9.1575 12.2596 9.05195 12.1588C8.9464 12.0579 8.88441 11.9198 8.87926 11.7739V10.4191C8.84864 9.94231 9.08973 9.01749 10.1585 8.36438C10.6983 8.03696 11.319 7.46478 11.319 6.63709V6.63721C11.319 5.97668 10.9666 5.3665 10.3947 5.03618C9.82262 4.706 9.11794 4.706 8.54589 5.03618C7.97397 5.3665 7.62156 5.97668 7.62156 6.63721C7.59884 6.81204 7.49216 6.96476 7.33579 7.04634C7.17941 7.12779 6.99317 7.12779 6.8368 7.04634C6.68043 6.96476 6.57375 6.81202 6.55103 6.63721C6.54526 5.58301 7.10236 4.60582 8.01237 4.07371C8.92237 3.54169 10.0473 3.53543 10.9631 4.05752C11.879 4.57961 12.4466 5.55063 12.4524 6.60483C12.4506 7.64663 11.8551 8.59654 10.7594 9.25505L10.7594 9.25502Z" fill="#BABCCC"/>
</g>
<defs>
<clipPath id="clip0_295_3000">
<rect width="18" height="18" fill="white" transform="translate(0.5 0.5)"/>
</clipPath>
</defs>
</svg>
