<svg width="30" height="23" viewBox="0 0 30 23" fill="none" xmlns="http://www.w3.org/2000/svg">
<path fill-rule="evenodd" clip-rule="evenodd" d="M15.0002 17.8876H24.2492V15.9427C24.2492 15.9427 20.6862 12.8488 20.6862 7.91238C20.6862 2.97598 17.8713 0.613616 15 0.5C12.1287 0.613209 9.31378 2.97585 9.31378 7.91238C9.31378 12.8489 5.75078 15.9427 5.75078 15.9427V17.8876H15.0002ZM7.36301 6.26719C8.18893 5.54096 7.11311 4.24866 6.28722 4.97489C4.70261 6.37419 4.73264 10.2586 6.28376 11.6321C7.10572 12.3625 8.18824 11.0767 7.36628 10.3462C6.57365 9.64462 6.59671 6.94069 7.36305 6.26762L7.36301 6.26719ZM2.96303 3.67268C3.6231 2.78459 2.30756 1.75172 1.64749 2.63981C-0.566689 5.6245 -0.531568 11.0322 1.64749 13.9698C2.30756 14.8584 3.6231 13.8255 2.96303 12.9374C1.22161 10.5893 1.22161 6.02082 2.96303 3.67317V3.67268ZM5.15249 5.09999C5.88996 4.27618 4.67118 3.12398 3.93351 3.94773C2.14521 5.947 2.14521 10.662 3.93351 12.6615C4.67098 13.4848 5.88996 12.3328 5.15249 11.509C3.91707 10.1282 3.98199 6.40778 5.15249 5.09974V5.09999ZM22.637 6.26695C21.8111 5.54072 22.8869 4.24841 23.7128 4.97465C25.2974 6.37394 25.2674 10.2584 23.7162 11.6318C22.8943 12.3623 21.8118 11.0765 22.6333 10.3459C23.4264 9.64438 23.4033 6.94044 22.6368 6.26738L22.637 6.26695ZM27.037 3.67244C26.3769 2.78435 27.6924 1.75148 28.3525 2.63956C30.5667 5.62426 30.5316 11.032 28.3525 13.9696C27.6924 14.8581 26.3769 13.8253 27.037 12.9372C28.7779 10.589 28.7779 6.02058 27.037 3.67292V3.67244ZM24.8475 5.09974C24.11 4.27594 25.3288 3.12374 26.0665 3.94748C27.8548 5.94676 27.8548 10.6618 26.0665 12.6613C25.329 13.4846 24.11 12.3326 24.8475 11.5088C26.0829 10.1279 26.018 6.40754 24.8475 5.0995V5.09974ZM18.0552 18.9044C18.0737 19.0442 18.0829 19.1868 18.0829 19.3321C18.0829 21.0814 16.7029 22.5 15.0001 22.5C13.2974 22.5 11.9172 21.0814 11.9172 19.3321C11.9172 19.187 11.9267 19.0444 11.9449 18.9044H18.0552Z" fill="#CCCEDD"/>
</svg>
