<svg width="20" height="20" viewBox="0 0 20 20" fill="none" xmlns="http://www.w3.org/2000/svg">
<g clip-path="url(#clip0_338_4705)">
<path d="M10.0053 0.524658C10.3837 0.524658 10.7295 0.737377 10.8987 1.07382L13.4743 6.19796L19.1381 7.0174C19.5143 7.07178 19.8268 7.3339 19.9441 7.69348C20.0617 8.05306 19.9637 8.44773 19.6915 8.71184L15.5695 12.7094L16.4968 18.3458C16.558 18.7183 16.4018 19.0932 16.0935 19.3133C15.7853 19.5333 15.3782 19.5607 15.0429 19.3839L10.0054 16.7251L4.96782 19.3839C4.63258 19.5607 4.22543 19.5333 3.91729 19.3133C3.60897 19.0932 3.45278 18.7183 3.514 18.3458L4.4413 12.7094L0.319262 8.71184C0.0470563 8.44773 -0.0509212 8.05304 0.0666219 7.69348C0.184165 7.33391 0.496499 7.07177 0.8727 7.0174L6.53648 6.19796L9.11206 1.07382C9.28127 0.73736 9.62703 0.524658 10.0054 0.524658H10.0053ZM10.0053 3.73956L8.08971 7.55072C7.94358 7.84144 7.66352 8.04287 7.34013 8.08957L3.16228 8.69396L6.20819 11.6481C6.4416 11.8743 6.54929 12.1997 6.49662 12.5198L5.8106 16.6898L9.53717 14.7229C9.82994 14.5684 10.1807 14.5684 10.4735 14.7229L14.2001 16.6898L13.5141 12.5198C13.4614 12.1998 13.5691 11.8743 13.8025 11.6481L16.8484 8.69396L12.6705 8.08957C12.3472 8.04284 12.0671 7.84143 11.921 7.55072L10.0053 3.73956Z" fill="black"/>
</g>
<defs>
<clipPath id="clip0_338_4705">
<rect width="20" height="19" fill="white" transform="translate(0 0.5)"/>
</clipPath>
</defs>
</svg>
