<svg width="19" height="18" viewBox="0 0 19 18" fill="none" xmlns="http://www.w3.org/2000/svg">
<g clip-path="url(#clip0_295_1080)">
<path d="M9.4917 0.017334C4.5215 0.017334 0.500671 4.03817 0.500671 9.00836C0.500671 13.9786 4.5215 17.9994 9.4917 17.9994C14.4619 17.9994 18.4827 13.9786 18.4827 9.00836C18.4827 4.03817 14.4619 0.017334 9.4917 0.017334ZM13.9407 9.52958H9.88261V13.5876C9.88261 13.8668 9.65927 14.0903 9.37997 14.0903C9.1008 14.0903 8.87734 13.8669 8.87734 13.5876V9.52958H4.83789C4.55872 9.52958 4.33525 9.30624 4.33525 9.02694C4.33525 8.74777 4.55859 8.5243 4.83789 8.5243H8.89595V4.46624C8.89595 4.18707 9.11929 3.96361 9.39859 3.96361C9.67776 3.96361 9.90123 4.18694 9.90123 4.46624V8.5243H13.9593C14.2385 8.5243 14.4619 8.74764 14.4619 9.02694C14.4434 9.30624 14.2199 9.52958 13.9407 9.52958H13.9407Z" fill="white"/>
</g>
<defs>
<clipPath id="clip0_295_1080">
<rect width="18" height="18" fill="white" transform="translate(0.5)"/>
</clipPath>
</defs>
</svg>
