<svg width="31" height="30" viewBox="0 0 31 30" fill="none" xmlns="http://www.w3.org/2000/svg">
<path d="M15.4999 0.0151367C7.21628 0.0151367 0.514893 6.71652 0.514893 15.0002C0.514893 23.2838 7.21628 29.9852 15.4999 29.9852C23.7836 29.9852 30.485 23.2838 30.485 15.0002C30.485 6.71652 23.7836 0.0151367 15.4999 0.0151367ZM22.9149 15.8689H16.1515V22.6323C16.1515 23.0976 15.7792 23.47 15.3137 23.47C14.8484 23.47 14.476 23.0978 14.476 22.6323V15.8689H7.74359C7.27831 15.8689 6.90586 15.4966 6.90586 15.0311C6.90586 14.5659 7.2781 14.1934 7.74359 14.1934H14.507V7.42998C14.507 6.9647 14.8793 6.59226 15.3448 6.59226C15.81 6.59226 16.1825 6.96449 16.1825 7.42998V14.1934H22.9459C23.4112 14.1934 23.7836 14.5657 23.7836 15.0311C23.7527 15.4966 23.3803 15.8689 22.915 15.8689H22.9149Z" fill="#3D55D7"/>
</svg>
