<svg width="18" height="18" viewBox="0 0 18 18" fill="none" xmlns="http://www.w3.org/2000/svg">
<g clip-path="url(#clip0_292_6131)">
<path d="M8.99176 0.0170898C4.02156 0.0170898 0.000732422 4.03792 0.000732422 9.00811C0.000732422 13.9783 4.02156 17.9991 8.99176 17.9991C13.962 17.9991 17.9828 13.9783 17.9828 9.00811C17.9828 4.03792 13.962 0.0170898 8.99176 0.0170898ZM13.4407 9.52933H9.38267V13.5874C9.38267 13.8666 9.15933 14.09 8.88004 14.09C8.60086 14.09 8.3774 13.8667 8.3774 13.5874V9.52933H4.33795C4.05878 9.52933 3.83531 9.30599 3.83531 9.0267C3.83531 8.74753 4.05865 8.52406 4.33795 8.52406H8.39601V4.466C8.39601 4.18683 8.61935 3.96336 8.89865 3.96336C9.17782 3.96336 9.40129 4.1867 9.40129 4.466V8.52406H13.4593C13.7385 8.52406 13.962 8.7474 13.962 9.0267C13.9434 9.306 13.72 9.52933 13.4408 9.52933H13.4407Z" fill="white"/>
</g>
<defs>
<clipPath id="clip0_292_6131">
<rect width="18" height="18" fill="white"/>
</clipPath>
</defs>
</svg>
