<svg width="18" height="18" viewBox="0 0 18 18" fill="none" xmlns="http://www.w3.org/2000/svg">
<g clip-path="url(#clip0_295_2948)">
<path d="M16.0612 13.0971H15.9968C16.0081 12.5519 15.9697 11.6409 15.651 10.9391C15.4135 10.4156 15.0368 10.0604 14.4994 9.85361C14.3761 9.80586 14.2431 9.7666 14.1001 9.7346V2.06676L14.9399 0.646733C15.0595 0.44448 14.9947 0.182233 14.7954 0.0609854C14.5958 -0.0605122 14.3371 0.00548482 14.2175 0.207487L13.3175 1.72851C13.2783 1.79526 13.2573 1.87076 13.2573 1.94826V3.11677L9.94504 2.68452C9.47764 2.62352 9.00384 2.62352 8.53666 2.68452L5.22441 3.11677V1.94826C5.22441 1.87076 5.20345 1.79476 5.16423 1.72851L4.2642 0.207487C4.14458 0.00523457 3.88584 -0.0605122 3.68631 0.0609854C3.48677 0.182233 3.42215 0.444236 3.54177 0.646733L4.38162 2.06676V4.72404L4.38212 9.7348C4.23882 9.7668 4.10587 9.80605 3.98279 9.8538C3.44535 10.0606 3.06869 10.4158 2.83121 10.9393C2.51303 11.6408 2.47406 12.5518 2.4854 13.0973H2.42103C2.18844 13.0973 2 13.2883 2 13.5241V16.1698C2 16.4056 2.18844 16.5966 2.42103 16.5966H2.77497V17.5006C2.77497 17.7363 2.96342 17.9273 3.19601 17.9273H5.34947C5.58206 17.9273 5.7705 17.7363 5.7705 17.5006V16.5966H12.7104V17.5006C12.7104 17.7363 12.8989 17.9273 13.1315 17.9273H15.2849C15.5175 17.9273 15.706 17.7363 15.706 17.5006V16.5966H16.0599C16.2925 16.5966 16.4809 16.4056 16.4809 16.1698V13.5241C16.4822 13.2883 16.2935 13.0973 16.0611 13.0973L16.0612 13.0971ZM15.5531 13.9509H15.5538H15.6396V15.7431L2.84263 15.7434V13.9511H15.5519C15.5524 13.9509 15.5524 13.9509 15.5529 13.9509H15.5531ZM7.21073 10.8711C7.38511 10.8711 7.52644 10.7281 7.52644 10.5506V8.20792L9.04507 8.01767C9.17481 8.00117 9.30676 8.00117 9.4365 8.01767L12.05 8.34517V13.0977H9.55641V9.15893C9.55641 8.98218 9.41508 8.83893 9.2407 8.83893C9.06632 8.83893 8.92499 8.98193 8.92499 9.15893V13.0977H6.43138V8.34517L6.89434 8.28742V10.5512C6.89483 10.7282 7.03616 10.8712 7.21079 10.8712L7.21073 10.8711ZM14.8856 11.2961C15.1387 11.8539 15.1646 12.6359 15.1538 13.0972H12.8925V10.4902C14.2947 10.4527 14.6839 10.8519 14.8857 11.2962L14.8856 11.2961ZM8.64469 3.53166C9.0408 3.48016 9.44211 3.48016 9.83795 3.53191L13.2575 3.97766V4.36516L5.22453 4.36541V3.97791L8.64469 3.53166ZM6.32643 5.04468H8.92535V6.45492H6.32643V5.04468ZM9.55678 5.04468H12.1557V6.45492H9.55678V5.04468ZM5.22466 5.00593H5.69502V6.77496C5.69502 6.95171 5.83635 7.09496 6.01073 7.09496H12.4714C12.6458 7.09496 12.7871 6.95196 12.7871 6.77496V5.00593H13.2575V9.63793C13.1403 9.63443 13.0192 9.63393 12.8927 9.63693V7.9682C12.8927 7.7527 12.7344 7.57145 12.5235 7.54445L9.54051 7.1702C9.34171 7.14545 9.14069 7.14545 8.94214 7.1702L5.95918 7.54445C5.74855 7.57095 5.58994 7.7527 5.58994 7.9682V9.63693C5.46341 9.63418 5.34182 9.63443 5.22515 9.63793L5.2254 5.00593H5.22466ZM3.59654 11.2964C3.79805 10.8519 4.18702 10.4527 5.58969 10.4904V13.0974H3.32844C3.31759 12.6361 3.34349 11.8541 3.59655 11.2964L3.59654 11.2964ZM4.92897 17.0747H3.61776V16.5972H4.92897V17.0747ZM14.865 17.0747H13.5538V16.5972H14.865V17.0747Z" fill="white"/>
<path d="M5.08392 11.9067H3.90916C3.67657 11.9067 3.48813 12.0977 3.48813 12.3335C3.48813 12.569 3.67657 12.76 3.90916 12.76H5.08373C5.31632 12.76 5.50476 12.569 5.50476 12.3335C5.50501 12.0977 5.31656 11.9067 5.08397 11.9067H5.08392Z" fill="white"/>
<path d="M13.3984 12.7605H14.573C14.8056 12.7605 14.994 12.5695 14.994 12.334C14.994 12.0982 14.8056 11.9072 14.573 11.9072H13.3984C13.1659 11.9072 12.9774 12.0982 12.9774 12.334C12.9774 12.5695 13.1659 12.7605 13.3984 12.7605Z" fill="white"/>
<path d="M3.38664 7.35823C3.61923 7.35823 3.80767 7.16723 3.80767 6.93173V5.32226C3.80767 5.08651 3.61923 4.89551 3.38664 4.89551C3.15405 4.89551 2.96561 5.08651 2.96561 5.32226V6.93173C2.96536 7.16698 3.15429 7.35823 3.38664 7.35823Z" fill="white"/>
<path d="M14.6746 5.32177V6.93124C14.6746 7.16675 14.863 7.35775 15.0956 7.35775C15.3282 7.35775 15.5166 7.16675 15.5166 6.93124V5.32177C15.5166 5.08602 15.3282 4.89502 15.0956 4.89502C14.863 4.89477 14.6746 5.08577 14.6746 5.32177Z" fill="white"/>
</g>
<defs>
<clipPath id="clip0_295_2948">
<rect width="18" height="18" fill="white"/>
</clipPath>
</defs>
</svg>
