<svg width="26" height="15" viewBox="0 0 26 15" fill="none" xmlns="http://www.w3.org/2000/svg">
<g clip-path="url(#clip0_295_2926)">
<path d="M25.2003 6.74285H7.71897L13.4071 1.32092C13.5644 1.1811 13.6547 0.987104 13.6575 0.783117C13.6603 0.579327 13.5751 0.383054 13.4217 0.239582C13.2683 0.0960922 13.0597 0.017618 12.8439 0.0221594C12.6282 0.0267034 12.4235 0.113743 12.2769 0.263524L5.24609 6.96599C5.09859 7.10668 5.01587 7.29666 5.01587 7.49467C5.01587 7.69267 5.09859 7.88267 5.24609 8.02334L12.2769 14.7258C12.4235 14.8756 12.6281 14.9626 12.8439 14.9672C13.0597 14.9717 13.2683 14.8932 13.4217 14.7497C13.5751 14.6063 13.6603 14.41 13.6575 14.2062C13.6547 14.0022 13.5644 13.8083 13.4071 13.6684L7.71897 8.24648H25.2003C25.4845 8.24648 25.7473 8.10317 25.8895 7.87054C26.0318 7.63809 26.0318 7.35144 25.8895 7.119C25.7473 6.88637 25.4845 6.74305 25.2003 6.74305V6.74285Z" fill="#454863"/>
<rect width="0.992703" height="15" fill="#454863"/>
</g>
<defs>
<clipPath id="clip0_295_2926">
<rect width="26" height="15" fill="white"/>
</clipPath>
</defs>
</svg>
