<svg width="18" height="18" viewBox="0 0 18 18" fill="none" xmlns="http://www.w3.org/2000/svg">
<path d="M14.4335 7.78726H14.0197V5.95836C14.0306 4.64694 13.5052 3.38569 12.5603 2.45471C11.6155 1.52373 10.3295 1 8.9879 1C7.64625 1 6.36027 1.52373 5.41554 2.45471C4.47061 3.38569 3.9452 4.64694 3.95607 5.95836V7.78726H3.54301C3.13501 7.78891 2.74467 7.94873 2.45736 8.2318C2.17001 8.51469 2.00952 8.89769 2.01103 9.29634V16.4575C2.00952 16.8563 2.17002 17.2393 2.45717 17.5224C2.74452 17.8055 3.13504 17.9657 3.54301 17.9673H14.4337C14.8415 17.9655 15.232 17.8053 15.519 17.5222C15.8061 17.2391 15.9664 16.8561 15.9649 16.4575V9.29634C15.9664 8.89772 15.8061 8.5149 15.519 8.23199C15.2318 7.94892 14.8415 7.78892 14.4337 7.78727L14.4335 7.78726ZM9.62952 12.9747V13.9114C9.62989 13.9783 9.60283 14.0426 9.55472 14.0899C9.50643 14.1373 9.44084 14.1642 9.37243 14.1643H8.60267C8.46041 14.1636 8.34577 14.0505 8.34615 13.9114V12.9747C8.03963 12.7912 7.83084 12.4859 7.77465 12.1389C7.71846 11.7919 7.8205 11.4385 8.05373 11.1714C8.28714 10.9043 8.6284 10.7504 8.98773 10.7504C9.34724 10.7504 9.6885 10.9043 9.92193 11.1714C10.1552 11.4385 10.2572 11.7919 10.201 12.1389C10.1448 12.4859 9.93603 12.7912 9.62951 12.9747H9.62952ZM11.8138 7.78726H6.16281V5.95836C6.15699 5.22193 6.45203 4.51395 6.98256 3.99115C7.51307 3.46855 8.2351 3.17464 8.98831 3.17464C9.74171 3.17464 10.4637 3.46855 10.9943 3.99115C11.5248 4.51395 11.8198 5.22193 11.814 5.95836L11.8138 7.78726Z" fill="#454863"/>
</svg>
