<svg width="24" height="23" viewBox="0 0 24 23" fill="none" xmlns="http://www.w3.org/2000/svg">
<g clip-path="url(#clip0_295_2894)">
<path d="M15.0553 6.35682L12.1592 3.69108L9.45528 6.35682L7.43881 4.65533L12.1592 0.00610352L16.8341 4.57242L15.0553 6.35682Z" fill="url(#paint0_linear_295_2894)"/>
<path d="M9.45528 6.35682L12.1592 0.00610352L7.43881 4.65533L9.45528 6.35682Z" fill="url(#paint1_linear_295_2894)"/>
<path d="M16.8341 4.57242L12.1592 0.00610352L15.0554 6.35682L16.8341 4.57242Z" fill="url(#paint2_linear_295_2894)"/>
<path d="M9.2998 16.6006L12.1959 19.2662L14.8998 16.6006L16.7519 18.4639L12.1959 22.9514L7.521 18.3851L9.2998 16.6006Z" fill="url(#paint3_linear_295_2894)"/>
<path d="M12.1959 22.9514L7.521 18.3851L9.2998 16.6006L12.1959 22.9514Z" fill="url(#paint4_linear_295_2894)"/>
<path d="M16.7519 18.4639L12.1959 22.9514L14.8998 16.6006L16.7519 18.4639Z" fill="url(#paint5_linear_295_2894)"/>
<path d="M20.1624 11.5624L16.1261 15.5263L18.0016 17.3687L23.9145 11.5624L18.0023 5.75635L16.1261 7.5988L20.1624 11.5624Z" fill="url(#paint6_linear_295_2894)"/>
<path d="M16.1261 15.5262L23.9145 11.5623L18.0016 17.3686L16.1261 15.5262Z" fill="url(#paint7_linear_295_2894)"/>
<path d="M23.9145 11.5624L16.1261 7.5988L18.0023 5.75635L23.9145 11.5624Z" fill="url(#paint8_linear_295_2894)"/>
<path d="M3.83169 11.5628L7.86793 7.5988L5.99246 5.75635L0.0795288 11.5628L5.9918 17.3688L7.86793 15.5263L3.83169 11.5628Z" fill="url(#paint9_linear_295_2894)"/>
<path d="M7.86793 15.5262L0.0795288 11.5627L5.9918 17.3688L7.86793 15.5262Z" fill="url(#paint10_linear_295_2894)"/>
<path d="M7.86793 7.5988L0.0795288 11.5628L5.99246 5.75635L7.86793 7.5988Z" fill="url(#paint11_linear_295_2894)"/>
<path d="M11.6585 13.4129L9.80977 11.5972L11.6585 9.78246V6.03564L6.05704 11.5972L11.6585 17.098V13.4129Z" fill="url(#paint12_linear_295_2894)"/>
<path d="M6.06094 11.5732L11.6625 9.75849V6.00464L6.06094 11.5732Z" fill="url(#paint13_linear_295_2894)"/>
<path d="M11.6627 13.3889L6.0611 11.5732L11.6627 17.074V13.3889Z" fill="url(#paint14_linear_295_2894)"/>
<path d="M12.6144 13.4092L14.4631 11.5936L12.6144 9.77889V6.03198L18.2158 11.5936L12.6144 17.0943V13.4092Z" fill="url(#paint15_linear_295_2894)"/>
<path d="M18.2158 11.5936L12.6144 9.77889V6.03198L18.2158 11.5936Z" fill="url(#paint16_linear_295_2894)"/>
<path d="M12.6265 17.0348V13.3971L18.2521 11.573L12.6265 17.0348Z" fill="url(#paint17_linear_295_2894)"/>
</g>
<defs>
<linearGradient id="paint0_linear_295_2894" x1="-3.27533" y1="3.18146" x2="43.656" y2="3.18146" gradientUnits="userSpaceOnUse">
<stop stop-color="#FFDE03"/>
<stop offset="0.15812" stop-color="#FFC603"/>
<stop offset="0.492685" stop-color="#FF8802"/>
<stop offset="0.973454" stop-color="#FF2601"/>
<stop offset="1" stop-color="#FF2001"/>
</linearGradient>
<linearGradient id="paint1_linear_295_2894" x1="7.43881" y1="3.18146" x2="12.1592" y2="3.18146" gradientUnits="userSpaceOnUse">
<stop stop-color="#FFC904"/>
<stop offset="1" stop-color="#FF742C"/>
</linearGradient>
<linearGradient id="paint2_linear_295_2894" x1="12.1592" y1="3.18146" x2="16.8341" y2="3.18146" gradientUnits="userSpaceOnUse">
<stop stop-color="#FF742C"/>
<stop offset="1" stop-color="#FFC904"/>
</linearGradient>
<linearGradient id="paint3_linear_295_2894" x1="12.1364" y1="30.1937" x2="12.1364" y2="-1.53003" gradientUnits="userSpaceOnUse">
<stop stop-color="#FFDE03"/>
<stop offset="0.15812" stop-color="#FFC603"/>
<stop offset="0.492685" stop-color="#FF8802"/>
<stop offset="0.973454" stop-color="#FF2601"/>
<stop offset="1" stop-color="#FF2001"/>
</linearGradient>
<linearGradient id="paint4_linear_295_2894" x1="7.521" y1="19.776" x2="12.1959" y2="19.776" gradientUnits="userSpaceOnUse">
<stop stop-color="#FFC904"/>
<stop offset="1" stop-color="#FF742C"/>
</linearGradient>
<linearGradient id="paint5_linear_295_2894" x1="12.1959" y1="19.776" x2="16.7519" y2="19.776" gradientUnits="userSpaceOnUse">
<stop stop-color="#FF742C"/>
<stop offset="1" stop-color="#FFC904"/>
</linearGradient>
<linearGradient id="paint6_linear_295_2894" x1="16.1261" y1="11.5625" x2="23.9145" y2="11.5625" gradientUnits="userSpaceOnUse">
<stop stop-color="#20454D"/>
<stop offset="1" stop-color="#574CE3"/>
</linearGradient>
<linearGradient id="paint7_linear_295_2894" x1="16.1261" y1="14.4654" x2="23.9145" y2="14.4654" gradientUnits="userSpaceOnUse">
<stop stop-color="#574CE3"/>
<stop offset="0.989796" stop-color="#00D4FE" stop-opacity="0"/>
</linearGradient>
<linearGradient id="paint8_linear_295_2894" x1="16.1261" y1="8.65935" x2="23.9145" y2="8.65935" gradientUnits="userSpaceOnUse">
<stop stop-color="#574CE3"/>
<stop offset="0.989796" stop-color="#00D4FE" stop-opacity="0"/>
</linearGradient>
<linearGradient id="paint9_linear_295_2894" x1="7.86794" y1="11.5626" x2="0.0795288" y2="11.5626" gradientUnits="userSpaceOnUse">
<stop stop-color="#20454D"/>
<stop offset="1" stop-color="#574CE3"/>
</linearGradient>
<linearGradient id="paint10_linear_295_2894" x1="0.0795288" y1="14.4658" x2="7.86793" y2="14.4658" gradientUnits="userSpaceOnUse">
<stop stop-color="#00D4FE" stop-opacity="0"/>
<stop offset="1" stop-color="#574CE3"/>
</linearGradient>
<linearGradient id="paint11_linear_295_2894" x1="0.0795288" y1="8.65959" x2="7.86793" y2="8.65959" gradientUnits="userSpaceOnUse">
<stop offset="0.0102041" stop-color="#00D4FE" stop-opacity="0"/>
<stop offset="1" stop-color="#574CE3"/>
</linearGradient>
<linearGradient id="paint12_linear_295_2894" x1="8.84221" y1="14.3324" x2="14.3725" y2="8.70075" gradientUnits="userSpaceOnUse">
<stop stop-color="#FFDE03"/>
<stop offset="0.15812" stop-color="#FFC603"/>
<stop offset="0.492685" stop-color="#FF8802"/>
<stop offset="0.973454" stop-color="#FF2601"/>
<stop offset="1" stop-color="#FF2001"/>
</linearGradient>
<linearGradient id="paint13_linear_295_2894" x1="6.06094" y1="8.78892" x2="11.6625" y2="8.78892" gradientUnits="userSpaceOnUse">
<stop stop-color="#FF742C"/>
<stop offset="1" stop-color="#FFC904"/>
</linearGradient>
<linearGradient id="paint14_linear_295_2894" x1="6.0611" y1="14.3236" x2="11.6627" y2="14.3236" gradientUnits="userSpaceOnUse">
<stop stop-color="#FF742C"/>
<stop offset="1" stop-color="#FFC904"/>
</linearGradient>
<linearGradient id="paint15_linear_295_2894" x1="18.2158" y1="11.5631" x2="12.6144" y2="11.5631" gradientUnits="userSpaceOnUse">
<stop stop-color="#00D4FE"/>
<stop offset="1" stop-color="#574CE3"/>
</linearGradient>
<linearGradient id="paint16_linear_295_2894" x1="12.6144" y1="8.81279" x2="18.2158" y2="8.81279" gradientUnits="userSpaceOnUse">
<stop offset="0.0102041" stop-color="#00D4FE" stop-opacity="0"/>
<stop offset="1" stop-color="#574CE3"/>
</linearGradient>
<linearGradient id="paint17_linear_295_2894" x1="12.6265" y1="14.3039" x2="18.2521" y2="14.3039" gradientUnits="userSpaceOnUse">
<stop offset="0.0102041" stop-color="#00D4FE" stop-opacity="0"/>
<stop offset="1" stop-color="#574CE3"/>
</linearGradient>
<clipPath id="clip0_295_2894">
<rect width="24" height="23" fill="white"/>
</clipPath>
</defs>
</svg>
