<svg width="18" height="18" viewBox="0 0 18 18" fill="none" xmlns="http://www.w3.org/2000/svg">
<path fill-rule="evenodd" clip-rule="evenodd" d="M7.14221 10.3668C7.14221 8.38883 5.54093 6.78136 3.5711 6.78136C1.60128 6.78136 0 8.38945 0 10.3668C0 12.294 2.05225 13.5641 3.11296 15.8608C3.29005 16.2465 3.84737 16.2565 4.02897 15.8608C5.08985 13.5643 7.14209 12.2945 7.14209 10.3668H7.14221ZM6.43086 3.11339V7.59626C6.13766 7.29092 5.79667 7.03296 5.41973 6.83323V3.11336L2.58153 2.09491V6.50038C2.22226 6.59288 1.88322 6.73487 1.57056 6.91836L1.57026 1.37504C1.57026 1.01164 1.93957 0.769613 2.26784 0.905462L5.92509 2.21767L9.57754 0.907272C9.68406 0.864703 9.80212 0.85252 9.91823 0.88847C10.9794 1.15485 12.5306 1.8254 13.6237 2.2177L17.3033 0.897673C17.6346 0.778998 17.9781 1.02808 17.9781 1.37522L17.9786 13.696C17.9786 14.0594 17.6093 14.3011 17.281 14.1656L13.6238 12.8532L9.94611 14.1728C9.83734 14.2139 9.71403 14.2118 9.60466 14.1736L6.44272 13.039C6.65023 12.7609 6.85008 12.4715 7.02164 12.1694L9.2688 12.9759V2.09492L6.4306 3.11337L6.43086 3.11339ZM13.1183 11.9574V3.11339L10.2801 2.09495V12.976L13.1183 11.9574ZM14.1294 3.11339V11.9574L16.9676 12.9759V2.09487L14.1294 3.11339ZM5.50894 10.3668C5.50894 11.4388 4.63876 12.3124 3.57087 12.3124C2.50114 12.3124 1.63281 11.4409 1.63281 10.3668C1.63281 9.2928 2.50118 8.42102 3.57087 8.42102C4.63984 8.42102 5.50894 9.29434 5.50894 10.3668Z" fill="white"/>
</svg>
