<svg width="18" height="18" viewBox="0 0 18 18" fill="none" xmlns="http://www.w3.org/2000/svg">
<g clip-path="url(#clip0_295_2960)">
<path fill-rule="evenodd" clip-rule="evenodd" d="M16.6037 6.95499V15.4156H15.6118V6.33301L10.1848 2.90951C9.45291 2.44732 8.54255 2.44632 7.80901 2.90951L2.38161 6.33301V15.4156H1.3899V6.9589L0.52119 7.50708L0 6.64452L7.28782 2.04655C8.34363 1.38162 9.65281 1.38162 10.7054 2.04655L16.3666 5.61803L18.005 6.64365L17.4869 7.5076L16.6037 6.95499Z" fill="white"/>
<path fill-rule="evenodd" clip-rule="evenodd" d="M7.36574 11.0917H8.5137V14.4517H5.2256V11.0917H6.37407V11.7651H7.36579L7.36574 11.0917ZM4.23367 15.4655H9.5055V10.0784H4.23367V15.4655Z" fill="white"/>
<path fill-rule="evenodd" clip-rule="evenodd" d="M11.6455 11.0917H12.794V14.4517H9.50519V11.0917H10.6538V11.7651H11.6455V11.0917ZM8.51343 15.4655H13.7857V10.0784H8.51343V15.4655Z" fill="white"/>
<path fill-rule="evenodd" clip-rule="evenodd" d="M9.49309 6.71816H10.6416V10.0782H7.35278V6.71816H8.50125V7.66572H9.49314L9.49309 6.71816ZM6.36102 11.092H11.6333V5.70483H6.36102V11.092Z" fill="white"/>
</g>
<defs>
<clipPath id="clip0_295_2960">
<rect width="18" height="18" fill="white"/>
</clipPath>
</defs>
</svg>
